PathFileType	4	(X/Y/Z)	C:\Users\chris\Documents\GitHub\baseballds\vids\pitch2_Sports2D\pitch2_Sports2D_m_person00.trc
DataRate	CameraRate	NumFrames	NumMarkers	Units	OrigDataRate	OrigDataStartFrame	OrigNumFrames
30	30	9	22	m	30	60	243
Frame#	Time	Hip			RHip			RKnee			RAnkle			RBigToe			RSmallToe			RHeel			LHip			LKnee			LAnkle			LBigToe			LSmallToe			LHeel			Neck			Head			Nose			RShoulder			RElbow			RWrist			LShoulder			LElbow			LWrist		
		X1	Y1	Z1	X2	Y2	Z2	X3	Y3	Z3	X4	Y4	Z4	X5	Y5	Z5	X6	Y6	Z6	X7	Y7	Z7	X8	Y8	Z8	X9	Y9	Z9	X10	Y10	Z10	X11	Y11	Z11	X12	Y12	Z12	X13	Y13	Z13	X14	Y14	Z14	X15	Y15	Z15	X16	Y16	Z16	X17	Y17	Z17	X18	Y18	Z18	X19	Y19	Z19	X20	Y20	Z20	X21	Y21	Z21	X22	Y22	Z22
60	2.0	0.2703111643827494	0.5380582471713732	0.0	0.26752441432567087	0.4996551044741413	0.0	0.6233350267937479	0.21755915204116777	0.0	0.8263658922152805	-0.1344901268880931	0.0	1.0586128965891315	-0.07369511695511224	0.0	1.0243808056917225	-0.11674516179489426	0.0	0.8254510975599761	-0.19763807191240249	0.0	0.33806315786911434	0.5403918249868266	0.0	0.6277919701540526	0.25505244334198135	0.0	0.798139503413891	0.0026426953854881206	0.0	1.027463977945513	0.023274691449504	0.0	0.990240288031451	0.03794014601870555	0.0	0.7888936042771785	-0.0645185723445379	0.0	0.17743507283560833	1.1098383458994296	0.0	0.1789770219951931	1.3674224861088522	0.0	0.3192082877185743	1.2370078546818168	0.0	0.1525862442075159	0.9973886196976727	0.0	0.42792092859837805	0.7624578965469254	0.0	0.6719372560261799	0.9391313965081343	0.0	0.24334868596487438	1.0380951694224536	0.0	0.4387059868520153	0.8442211140529271	0.0	0.663314914652051	0.9429681476576803	0.0
61	2.033333333333333	0.2751052890179501	0.5425405233587237	0.0	0.27444573251031135	0.500043807622853	0.0	0.6231330855534046	0.21984945438671905	0.0	0.8265836903574937	-0.13315584434118707	0.0	1.0620310303328482	-0.07272995806859449	0.0	1.0275104529527532	-0.11612046724001712	0.0	0.8246186540391204	-0.1980451387661879	0.0	0.3427994952536435	0.5420708159553097	0.0	0.6291538566611575	0.25736866156068045	0.0	0.8003225468785463	0.0009744314096516843	0.0	1.027503982456545	0.022596099355726474	0.0	0.9890375225396321	0.03726171291200241	0.0	0.792139010235077	-0.06471753556417799	0.0	0.16700343988310215	1.1135039406627119	0.0	0.15702432312891149	1.3681706547699644	0.0	0.30530958822042803	1.2418556923041735	0.0	0.14535477111369038	0.999178373370407	0.0	0.4231884309340766	0.7700227733733547	0.0	0.6617375370623576	0.946060396223397	0.0	0.22797627284408825	1.037010685793214	0.0	0.42932554133279993	0.8420614254451884	0.0	0.6528850139550494	0.9468398897023004	0.0
62	2.0666666666666664	0.2807568355714184	0.5465006034540162	0.0	0.2785505569581665	0.5015799863120011	0.0	0.6247714891549382	0.22245503670166528	0.0	0.8274162867718585	-0.13248901178784925	0.0	1.0657097032097824	-0.07100558669018864	0.0	1.0313889653567634	-0.11447348196325713	0.0	0.8252261526784291	-0.19808421150553007	0.0	0.3471111637673189	0.5451238757801188	0.0	0.631449715144022	0.259311837775939	0.0	0.8010002229684511	-0.0016329427988778953	0.0	1.0289759703343295	0.021140521136871135	0.0	0.9881221704658953	0.03599217986548445	0.0	0.7929289108717915	-0.06553729943098927	0.0	0.15543967994320526	1.1141011676660542	0.0	0.13540789763304284	1.3679470495164123	0.0	0.29267606231463034	1.2454210228067057	0.0	0.137220004253849	0.9997466954897191	0.0	0.41802397369988786	0.7774031894596406	0.0	0.6516532869817775	0.9534416507717014	0.0	0.22151804615503162	1.0363514145423067	0.0	0.4245573263173424	0.8395464293168116	0.0	0.6432921041701394	0.950336758362205	0.0
63	2.1	0.28568102470420575	0.5484476834540356	0.0	0.2803777160927988	0.5029361037109088	0.0	0.6290635709005507	0.22439878516168638	0.0	0.8294898012342822	-0.13258812767690828	0.0	1.0648343623020942	-0.07001677116965466	0.0	1.032103044283479	-0.11313503639801957	0.0	0.8263740772844594	-0.19794388334934296	0.0	0.351708331236547	0.5481658840574234	0.0	0.6345678612184701	0.2591472855031132	0.0	0.7985848609248114	-0.0037858712785495347	0.0	1.0271705962859397	0.017786852085925235	0.0	0.9851594770914845	0.03350123642800423	0.0	0.7885498505395782	-0.06655048537190433	0.0	0.14477424730897412	1.1111523663168799	0.0	0.11453363739237034	1.3650522321282794	0.0	0.2786076564034808	1.2485119012020651	0.0	0.13050258835470296	0.9991112222594049	0.0	0.41503849745554483	0.7794146764297344	0.0	0.6453811995532704	0.9611541346556167	0.0	0.22510456106333823	1.036790409739295	0.0	0.42968586664175107	0.843490612038536	0.0	0.6412405412154528	0.9565799725814728	0.0
64	2.1333333333333333	0.2893277842603689	0.5480747868070988	0.0	0.28159965379997454	0.50205516362401	0.0	0.6333487256716904	0.226261338882618	0.0	0.8306450429838153	-0.13253931399065405	0.0	1.0624837010295192	-0.07078881946000916	0.0	1.0319437804460954	-0.11238819458873711	0.0	0.8271317992530992	-0.19913497580301376	0.0	0.3558945719551399	0.5492711420296617	0.0	0.6376253242810764	0.25831056091614973	0.0	0.7959077057864218	-0.007839821882520496	0.0	1.0224055273414694	0.01137351641912599	0.0	0.9806253071325388	0.027893035814803253	0.0	0.783075207666188	-0.07126180060839271	0.0	0.13570201373574406	1.106228961964707	0.0	0.09625776403863857	1.3590589959269788	0.0	0.26334254938744894	1.250092535178487	0.0	0.1237593652444321	0.9956296497401932	0.0	0.4142224124478468	0.7784114516608033	0.0	0.6421112913865946	0.9679561450235477	0.0	0.22966074534308104	1.0367888704401993	0.0	0.4385706714132592	0.8516300991023973	0.0	0.6437398950617832	0.9645776176246927	0.0
65	2.1666666666666665	0.29318469685617615	0.5464190325891308	0.0	0.28350034683606873	0.4989951967105026	0.0	0.6370379749433368	0.22824878419125924	0.0	0.8292081135499412	-0.13127843559219865	0.0	1.0628902656202515	-0.07315281994591427	0.0	1.0320107978995343	-0.11274433342596218	0.0	0.8268500409426369	-0.2012822037065352	0.0	0.3590535557737094	0.548193598212966	0.0	0.6409672752213782	0.25779779288861626	0.0	0.7964292563423863	-0.015302206034876406	0.0	1.0193350901034108	0.002976077700850924	0.0	0.9788180882849082	0.01969411650536404	0.0	0.7824046648471953	-0.081432408096595	0.0	0.12777520084191107	1.1005482218393516	0.0	0.08132616032774467	1.352125125241587	0.0	0.25006810622899056	1.2498971266794618	0.0	0.11519498609646847	0.9882624384203919	0.0	0.41441962950285005	0.7790018893633132	0.0	0.6392409076530718	0.9720547537758584	0.0	0.22930902060358063	1.034138415285011	0.0	0.44309920507950584	0.8569022554523611	0.0	0.645033421075913	0.9716468196307834	0.0
66	2.2	0.2977009073054996	0.5451128604959687	0.0	0.2865837369678861	0.496769406256847	0.0	0.6431013474162098	0.2295828191574718	0.0	0.8271922929364518	-0.1306085565780244	0.0	1.0619312494103677	-0.07557319692407359	0.0	1.027394490657185	-0.11641742784263236	0.0	0.8262197685881687	-0.20206960015288897	0.0	0.3616561271322793	0.5464337199069257	0.0	0.6459138991635957	0.2562009507775631	0.0	0.7996805402840529	-0.021506688190518854	0.0	1.019221627896326	-0.002676807042410508	0.0	0.9819354983602812	0.014001489304541348	0.0	0.7871185548421438	-0.09003454230573424	0.0	0.12124452306870094	1.0944392821661348	0.0	0.06854518901882789	1.3461404661752985	0.0	0.24076790854593433	1.2487350691830403	0.0	0.10731876435440113	0.9788495592420254	0.0	0.4157302393414624	0.7807903445764023	0.0	0.6370343994339719	0.9754706343855434	0.0	0.227005520540138	1.0288256813644465	0.0	0.44362141561588475	0.8583634061003055	0.0	0.6452971197814112	0.9761695079711856	0.0
67	2.2333333333333334	0.3023280977892017	0.5451143310267589	0.0	0.29114331061402476	0.4981072792455716	0.0	0.6515626434335373	0.229903749482923	0.0	0.8276949241460969	-0.13315832879264922	0.0	1.0552473068796928	-0.07763595444245648	0.0	1.0163580892996102	-0.12364074017862452	0.0	0.826425025320598	-0.2016309086652034	0.0	0.36467399454436294	0.545905359446607	0.0	0.6523091839666921	0.2540043156955676	0.0	0.8031866564293076	-0.022299832096618094	0.0	1.0192058575882994	-0.0025263309978187528	0.0	0.9862885587103879	0.014743705306154676	0.0	0.7936944531691809	-0.09026791061649635	0.0	0.11607823224840784	1.0888222267131704	0.0	0.05592827585774935	1.3410818671199358	0.0	0.23395528871191612	1.2472971651965241	0.0	0.10300785385469628	0.9709065813163444	0.0	0.4175100645757577	0.7817083602733215	0.0	0.6363315465413237	0.9809745021114991	0.0	0.22446999828799413	1.023627885756612	0.0	0.44338747211134405	0.8607260685341058	0.0	0.6468427488011532	0.9789964969667518	0.0
68	2.2666666666666666	0.3073406647006528	0.5462724127302198	0.0	0.29716151602670754	0.5020581269071085	0.0	0.6584944658437124	0.2294127427792281	0.0	0.831000181658573	-0.13761847866522908	0.0	1.0501331133399012	-0.0796055730061637	0.0	1.0093913402006718	-0.12836338127575372	0.0	0.828224453166916	-0.2027721093827038	0.0	0.3683017104505669	0.5475438422083203	0.0	0.6582517068116948	0.2539089972459711	0.0	0.8053765788719894	-0.021372304591946414	0.0	1.0176227726368032	1.1372946162976527e-05	0.0	0.9866361859058654	0.019007144649534357	0.0	0.7983404872405442	-0.08681528716856798	0.0	0.11042930807949529	1.085415554287296	0.0	0.04257948330367075	1.3368742522824903	0.0	0.2257925102193041	1.2466523760668855	0.0	0.1003992049033052	0.9668889147969305	0.0	0.41703690359520257	0.7827134654803348	0.0	0.6343973515984619	0.9865845197931453	0.0	0.21750127583349926	1.0214160796953498	0.0	0.43947932369054815	0.8650911686251772	0.0	0.6469957100893741	0.9820733761383634	0.0
